<svg width="32" height="32" viewBox="0 0 32 32" fill="none" xmlns="http://www.w3.org/2000/svg">
<rect width="32" height="32" rx="6" fill="black"/>
<path d="M16.6937 22C16.3524 22 16.1114 21.6657 16.2194 21.3419L19.886 10.3419C19.9541 10.1377 20.1452 10 20.3604 10H23.3063C23.6476 10 23.8886 10.3343 23.7806 10.6581L20.114 21.6581C20.0459 21.8623 19.8548 22 19.6396 22H16.6937Z" fill="white"/>
<path d="M12.0073 22C11.787 22 11.5927 21.8558 11.5288 21.645L8.19546 10.645C8.09815 10.3239 8.33846 10 8.67397 10H17.326C17.6615 10 17.9018 10.3239 17.8045 10.645L14.4712 21.645C14.4073 21.8558 14.213 22 13.9927 22H12.0073Z" fill="white"/>
</svg>
